<svg width="177" height="44" viewBox="0 0 177 44" fill="none" xmlns="http://www.w3.org/2000/svg">
<rect x="28.0458" y="16.7231" width="8.49378" height="8.49378" rx="4.24689" fill="#B8EF43"/>
<rect x="0.432785" y="2.65601" width="8.49378" height="8.49378" rx="4.24689" fill="white"/>
<rect x="14.2343" y="2.65601" width="8.49378" height="8.49378" rx="4.24689" fill="white"/>
<rect x="0.432785" y="16.7231" width="8.49378" height="8.49378" rx="4.24689" fill="#B8EF43"/>
<rect x="14.2343" y="16.7231" width="8.49378" height="8.49378" rx="4.24689" fill="#B8EF43"/>
<rect x="0.432785" y="30.526" width="8.49378" height="8.49378" rx="4.24689" fill="#B8EF43"/>
<rect x="14.2343" y="30.526" width="8.49378" height="8.49378" rx="4.24689" fill="#B8EF43"/>
<rect x="28.0458" y="30.526" width="8.49378" height="8.49378" rx="4.24689" fill="white"/>
<path d="M32.28 1.06396C31.3499 3.81552 29.1902 5.97523 26.4405 6.90344C29.1921 7.8335 31.3518 9.9932 32.28 12.7429C33.2101 9.99136 35.3698 7.83166 38.1195 6.90344C35.3679 5.97339 33.2082 3.81368 32.28 1.06396Z" fill="white"/>
<path d="M54.0503 20.2619C54.0503 12.1236 57.4472 7.09909 65.3024 7.09909C73.1576 7.09909 76.5545 12.1236 76.5545 20.2619C76.5545 28.4002 73.1576 33.4247 65.3024 33.4247C57.4472 33.4247 54.0503 28.4002 54.0503 20.2619ZM73.2992 20.2619C73.2992 12.9374 70.3269 9.82365 65.3732 9.82365C60.2779 9.82365 57.3056 12.9374 57.3056 20.2619C57.3056 27.5864 60.2779 30.7002 65.2316 30.7002C70.3269 30.7002 73.2992 27.5864 73.2992 20.2619ZM80.9849 13.8928H83.9926V27.4448C83.9926 29.4617 85.0187 30.7002 87.3187 30.7002C89.2294 30.7002 91.7063 29.7094 94.1124 28.2941V13.8928H97.12V33.0001H94.6077L94.3247 30.7002C91.6001 32.2924 88.8402 33.4247 86.5048 33.4247C82.931 33.4247 80.9849 31.5494 80.9849 28.011V13.8928ZM106.546 13.8928H112.668V16.5112H106.546V28.5064C106.546 30.2048 107.714 30.7002 109.023 30.7002C109.978 30.7002 111.075 30.4879 111.96 30.2048V32.8586C110.615 33.1063 108.952 33.3893 107.608 33.3893C105.343 33.3893 103.503 32.6109 103.503 29.214V16.5112H100.814V14.6005L101.451 13.8928H103.503V11.5575L105.308 9.68212H106.546V13.8928ZM121.337 30.8063C124.274 30.8063 125.795 29.7802 125.795 27.5156C125.795 25.1803 123.92 24.8972 121.16 24.508C118.223 24.0834 114.932 23.3757 114.932 19.0942C114.932 14.8128 118.364 13.4682 122.54 13.4682C124.38 13.4682 126.29 13.6805 127.847 13.9282V16.6528C126.361 16.4051 124.38 16.122 122.858 16.122C119.461 16.122 118.046 17.042 118.046 18.9527C118.046 21.2173 119.886 21.5357 122.575 21.8896C125.583 22.3142 128.909 22.8803 128.909 27.3741C128.909 31.2309 126.467 33.4247 121.514 33.4247C119.32 33.4247 116.666 33.2124 115.038 33.0355V30.2402C117.444 30.594 119.744 30.8063 121.337 30.8063ZM147.108 13.8928V14.3882C147.108 17.8912 145.94 21.1465 142.189 23.0926L144.242 26.7372C145.586 29.1433 146.825 30.4879 148.842 30.4879V33.1417C148.488 33.2124 148.169 33.2124 147.815 33.2124C145.126 33.2124 143.322 31.3371 142.013 28.9664L139.465 24.2957L136.139 25.6757V33.0001H133.131V6.00219H136.139V22.9865L139.359 21.6773C141.553 20.7573 144.1 19.2712 144.1 14.6713V13.8928H147.108ZM155.489 13.8928V33.0001H152.482V13.8928H155.489ZM155.525 7.09909V10.8144H152.411V7.09909H155.525ZM164.166 6.00219V33.0001H161.158V6.00219H164.166ZM172.977 6.00219V33.0001H169.97V6.00219H172.977Z" fill="white"/>
</svg>
